<svg xmlns="http://www.w3.org/2000/svg" viewBox="0 0 1000 1000" width="1000" height="1000">
  <defs>
    <linearGradient id="bg" x1="0" y1="0" x2="1" y2="1">
      <stop offset="0%" stop-color="#02040a"/>
      <stop offset="50%" stop-color="#0a1024"/>
      <stop offset="100%" stop-color="#10183a"/>
    </linearGradient>
    <linearGradient id="text" x1="0" y1="0" x2="1" y2="1">
      <stop offset="0%" stop-color="#fb923c"/>
      <stop offset="50%" stop-color="#ef4444"/>
      <stop offset="100%" stop-color="#ff0066"/>
    </linearGradient>
    <filter id="glow" x="-50%" y="-50%" width="200%" height="200%">
      <feGaussianBlur stdDeviation="6"/>
    </filter>
    <pattern id="grid" x="0" y="0" width="40" height="40" patternUnits="userSpaceOnUse">
      <path d="M 40 0 L 0 0 0 40" fill="none" stroke="#fb923c" stroke-width="0.4" opacity="0.18"/>
    </pattern>
  </defs>

  <rect width="1000" height="1000" fill="url(#bg)"/>
  <rect width="1000" height="1000" fill="url(#grid)"/>

  <g filter="url(#glow)" opacity="0.85"><circle cx="152.0" cy="397.9" r="214.1" fill="#ff0066" opacity="0.15"/>
  <circle cx="114.7" cy="827.5" r="135.3" fill="#ef4444" opacity="0.23"/>
  <circle cx="180.0" cy="172.8" r="214.8" fill="#fb923c" opacity="0.34"/>
  <circle cx="906.5" cy="534.4" r="82.1" fill="#fb923c" opacity="0.25"/>
  <circle cx="633.5" cy="320.1" r="86.2" fill="#fb923c" opacity="0.37"/>
  <circle cx="714.0" cy="762.4" r="96.3" fill="#fb923c" opacity="0.15"/>
  <line x1="718.9" y1="791.9" x2="828.0" y2="633.5" stroke="#ef4444" stroke-width="1.5" opacity="0.54"/>
  <line x1="626.2" y1="580.7" x2="587.2" y2="426.2" stroke="#ef4444" stroke-width="2.6" opacity="0.33"/>
  <line x1="895.2" y1="257.3" x2="911.4" y2="515.0" stroke="#ff0066" stroke-width="2.4" opacity="0.36"/>
  <line x1="739.6" y1="45.4" x2="892.9" y2="236.8" stroke="#ff0066" stroke-width="3.0" opacity="0.30"/>
  <line x1="840.5" y1="220.4" x2="1124.1" y2="475.0" stroke="#fb923c" stroke-width="1.3" opacity="0.45"/>
  <line x1="954.3" y1="290.1" x2="751.7" y2="209.8" stroke="#ef4444" stroke-width="1.5" opacity="0.50"/>
  <line x1="67.7" y1="996.6" x2="307.7" y2="1217.6" stroke="#ef4444" stroke-width="0.8" opacity="0.56"/>
  <line x1="591.7" y1="848.1" x2="487.5" y2="948.2" stroke="#ff0066" stroke-width="1.7" opacity="0.22"/>
  <line x1="208.2" y1="282.1" x2="318.0" y2="159.3" stroke="#fb923c" stroke-width="1.5" opacity="0.25"/>
  <line x1="570.6" y1="337.8" x2="491.4" y2="184.4" stroke="#ff0066" stroke-width="2.3" opacity="0.45"/>
  <line x1="646.6" y1="940.2" x2="449.4" y2="1083.7" stroke="#ef4444" stroke-width="1.1" opacity="0.39"/>
  <line x1="175.4" y1="169.8" x2="402.6" y2="169.0" stroke="#ef4444" stroke-width="1.2" opacity="0.61"/>
  <rect x="102.0" y="616.6" width="46.0" height="83.4" fill="#ff0066" opacity="0.9"/>
  <rect x="252.0" y="611.0" width="46.0" height="89.0" fill="#ef4444" opacity="0.9"/>
  <rect x="402.0" y="615.2" width="46.0" height="84.8" fill="#fb923c" opacity="0.9"/>
  <rect x="502.0" y="618.5" width="46.0" height="81.5" fill="#ff0066" opacity="0.9"/>
  <rect x="552.0" y="637.1" width="46.0" height="62.9" fill="#ef4444" opacity="0.9"/>
  <rect x="602.0" y="643.4" width="46.0" height="56.6" fill="#ff0066" opacity="0.9"/>
  <rect x="702.0" y="652.0" width="46.0" height="48.0" fill="#fb923c" opacity="0.9"/>
  <rect x="752.0" y="642.6" width="46.0" height="57.4" fill="#ff0066" opacity="0.9"/>
  <rect x="802.0" y="622.4" width="46.0" height="77.6" fill="#ff0066" opacity="0.9"/></g>

  <g transform="translate(100, 760)">
    <text font-family="'Orbitron', monospace" font-size="62" font-weight="900" fill="url(#text)" filter="url(#glow)">BASS DROP</text>
  </g>
  <g transform="translate(100, 830)">
    <text font-family="'Share Tech Mono', monospace" font-size="28" font-weight="600" fill="#fb923c" letter-spacing="6">DUBSTEP · 140 BPM</text>
  </g>
  <g transform="translate(100, 880)">
    <text font-family="'Share Tech Mono', monospace" font-size="20" font-weight="500" fill="#ef4444" letter-spacing="4" opacity="0.7">BEATFORGE</text>
  </g>
</svg>
