<svg xmlns="http://www.w3.org/2000/svg" viewBox="0 0 1000 1000" width="1000" height="1000">
  <defs>
    <linearGradient id="bg" x1="0" y1="0" x2="1" y2="1">
      <stop offset="0%" stop-color="#02040a"/>
      <stop offset="50%" stop-color="#0a1024"/>
      <stop offset="100%" stop-color="#10183a"/>
    </linearGradient>
    <linearGradient id="text" x1="0" y1="0" x2="1" y2="1">
      <stop offset="0%" stop-color="#00f0ff"/>
      <stop offset="50%" stop-color="#b400ff"/>
      <stop offset="100%" stop-color="#ff00d4"/>
    </linearGradient>
    <filter id="glow" x="-50%" y="-50%" width="200%" height="200%">
      <feGaussianBlur stdDeviation="6"/>
    </filter>
    <pattern id="grid" x="0" y="0" width="40" height="40" patternUnits="userSpaceOnUse">
      <path d="M 40 0 L 0 0 0 40" fill="none" stroke="#00f0ff" stroke-width="0.4" opacity="0.18"/>
    </pattern>
  </defs>

  <rect width="1000" height="1000" fill="url(#bg)"/>
  <rect width="1000" height="1000" fill="url(#grid)"/>

  <g filter="url(#glow)" opacity="0.85"><circle cx="402.3" cy="777.7" r="214.9" fill="#b400ff" opacity="0.26"/>
  <circle cx="718.2" cy="524.0" r="79.4" fill="#ff00d4" opacity="0.24"/>
  <circle cx="131.8" cy="555.7" r="125.7" fill="#b400ff" opacity="0.37"/>
  <circle cx="161.5" cy="551.6" r="84.7" fill="#b400ff" opacity="0.22"/>
  <circle cx="448.0" cy="670.3" r="180.2" fill="#00f0ff" opacity="0.14"/>
  <circle cx="353.2" cy="299.2" r="171.6" fill="#00f0ff" opacity="0.36"/>
  <line x1="782.6" y1="545.1" x2="616.1" y2="391.1" stroke="#b400ff" stroke-width="2.8" opacity="0.47"/>
  <line x1="952.5" y1="483.2" x2="801.6" y2="427.1" stroke="#ff00d4" stroke-width="2.8" opacity="0.69"/>
  <line x1="909.5" y1="626.4" x2="893.1" y2="351.2" stroke="#b400ff" stroke-width="2.5" opacity="0.21"/>
  <line x1="98.6" y1="960.1" x2="261.4" y2="1080.7" stroke="#b400ff" stroke-width="0.9" opacity="0.55"/>
  <line x1="279.2" y1="209.1" x2="547.5" y2="226.0" stroke="#b400ff" stroke-width="1.9" opacity="0.48"/>
  <line x1="292.5" y1="847.3" x2="564.9" y2="609.6" stroke="#b400ff" stroke-width="2.4" opacity="0.60"/>
  <line x1="710.8" y1="273.1" x2="973.3" y2="537.0" stroke="#00f0ff" stroke-width="2.8" opacity="0.53"/>
  <line x1="178.9" y1="407.8" x2="268.2" y2="371.7" stroke="#ff00d4" stroke-width="1.4" opacity="0.45"/>
  <line x1="635.8" y1="264.8" x2="551.0" y2="235.8" stroke="#b400ff" stroke-width="2.6" opacity="0.31"/>
  <line x1="490.6" y1="286.0" x2="335.2" y2="140.8" stroke="#b400ff" stroke-width="0.6" opacity="0.64"/>
  <line x1="817.0" y1="309.1" x2="596.2" y2="603.2" stroke="#00f0ff" stroke-width="0.6" opacity="0.38"/>
  <line x1="870.4" y1="972.5" x2="742.1" y2="1093.5" stroke="#b400ff" stroke-width="2.8" opacity="0.40"/>
  <rect x="102.0" y="621.8" width="21.0" height="78.2" fill="#00f0ff" opacity="0.9"/>
  <rect x="177.0" y="668.6" width="21.0" height="31.4" fill="#b400ff" opacity="0.9"/>
  <rect x="202.0" y="651.3" width="21.0" height="48.7" fill="#ff00d4" opacity="0.9"/>
  <rect x="227.0" y="654.2" width="21.0" height="45.8" fill="#b400ff" opacity="0.9"/>
  <rect x="302.0" y="670.4" width="21.0" height="29.6" fill="#00f0ff" opacity="0.9"/>
  <rect x="352.0" y="615.8" width="21.0" height="84.2" fill="#b400ff" opacity="0.9"/>
  <rect x="427.0" y="654.3" width="21.0" height="45.7" fill="#ff00d4" opacity="0.9"/>
  <rect x="452.0" y="662.0" width="21.0" height="38.0" fill="#ff00d4" opacity="0.9"/>
  <rect x="527.0" y="660.7" width="21.0" height="39.3" fill="#b400ff" opacity="0.9"/>
  <rect x="602.0" y="631.4" width="21.0" height="68.6" fill="#b400ff" opacity="0.9"/>
  <rect x="677.0" y="612.0" width="21.0" height="88.0" fill="#ff00d4" opacity="0.9"/>
  <rect x="702.0" y="644.2" width="21.0" height="55.8" fill="#ff00d4" opacity="0.9"/>
  <rect x="727.0" y="608.7" width="21.0" height="91.3" fill="#00f0ff" opacity="0.9"/>
  <rect x="752.0" y="604.0" width="21.0" height="96.0" fill="#ff00d4" opacity="0.9"/>
  <rect x="777.0" y="641.2" width="21.0" height="58.8" fill="#00f0ff" opacity="0.9"/>
  <rect x="877.0" y="644.1" width="21.0" height="55.9" fill="#ff00d4" opacity="0.9"/></g>

  <g transform="translate(100, 760)">
    <text font-family="'Orbitron', monospace" font-size="62" font-weight="900" fill="url(#text)" filter="url(#glow)">LIQUID DREAM</text>
  </g>
  <g transform="translate(100, 830)">
    <text font-family="'Share Tech Mono', monospace" font-size="28" font-weight="600" fill="#00f0ff" letter-spacing="6">LIQUID FUNK · 174 BPM</text>
  </g>
  <g transform="translate(100, 880)">
    <text font-family="'Share Tech Mono', monospace" font-size="20" font-weight="500" fill="#b400ff" letter-spacing="4" opacity="0.7">BEATFORGE</text>
  </g>
</svg>
