<svg xmlns="http://www.w3.org/2000/svg" viewBox="0 0 1000 1000" width="1000" height="1000">
  <defs>
    <linearGradient id="bg" x1="0" y1="0" x2="1" y2="1">
      <stop offset="0%" stop-color="#02040a"/>
      <stop offset="50%" stop-color="#0a1024"/>
      <stop offset="100%" stop-color="#10183a"/>
    </linearGradient>
    <linearGradient id="text" x1="0" y1="0" x2="1" y2="1">
      <stop offset="0%" stop-color="#facc15"/>
      <stop offset="50%" stop-color="#ef4444"/>
      <stop offset="100%" stop-color="#000000"/>
    </linearGradient>
    <filter id="glow" x="-50%" y="-50%" width="200%" height="200%">
      <feGaussianBlur stdDeviation="6"/>
    </filter>
    <pattern id="grid" x="0" y="0" width="40" height="40" patternUnits="userSpaceOnUse">
      <path d="M 40 0 L 0 0 0 40" fill="none" stroke="#facc15" stroke-width="0.4" opacity="0.18"/>
    </pattern>
  </defs>

  <rect width="1000" height="1000" fill="url(#bg)"/>
  <rect width="1000" height="1000" fill="url(#grid)"/>

  <g filter="url(#glow)" opacity="0.85"><circle cx="828.0" cy="879.0" r="214.7" fill="#000000" opacity="0.30"/>
  <circle cx="478.4" cy="832.3" r="121.3" fill="#ef4444" opacity="0.22"/>
  <circle cx="663.1" cy="642.3" r="161.5" fill="#000000" opacity="0.18"/>
  <circle cx="726.4" cy="281.0" r="98.5" fill="#facc15" opacity="0.20"/>
  <circle cx="178.4" cy="618.5" r="91.1" fill="#ef4444" opacity="0.24"/>
  <circle cx="254.4" cy="202.8" r="214.8" fill="#000000" opacity="0.31"/>
  <line x1="690.8" y1="45.7" x2="857.5" y2="-171.9" stroke="#ef4444" stroke-width="1.3" opacity="0.60"/>
  <line x1="855.5" y1="719.0" x2="1122.5" y2="690.5" stroke="#facc15" stroke-width="1.5" opacity="0.36"/>
  <line x1="283.8" y1="405.8" x2="468.5" y2="533.8" stroke="#000000" stroke-width="1.7" opacity="0.44"/>
  <line x1="895.7" y1="227.2" x2="1112.3" y2="-0.8" stroke="#ef4444" stroke-width="1.2" opacity="0.24"/>
  <line x1="541.8" y1="508.3" x2="364.9" y2="273.0" stroke="#000000" stroke-width="2.2" opacity="0.65"/>
  <line x1="481.6" y1="480.0" x2="646.0" y2="226.6" stroke="#facc15" stroke-width="1.8" opacity="0.49"/>
  <line x1="298.0" y1="790.2" x2="253.7" y2="1020.6" stroke="#000000" stroke-width="0.9" opacity="0.54"/>
  <line x1="980.5" y1="627.8" x2="1250.4" y2="530.8" stroke="#ef4444" stroke-width="2.4" opacity="0.22"/>
  <line x1="133.8" y1="678.7" x2="387.1" y2="441.2" stroke="#facc15" stroke-width="2.3" opacity="0.24"/>
  <line x1="919.2" y1="123.1" x2="692.9" y2="235.8" stroke="#ef4444" stroke-width="1.3" opacity="0.24"/>
  <line x1="683.4" y1="644.1" x2="480.0" y2="551.4" stroke="#000000" stroke-width="1.1" opacity="0.28"/>
  <line x1="306.8" y1="549.0" x2="384.5" y2="294.6" stroke="#000000" stroke-width="2.2" opacity="0.43"/>
  <rect x="102.0" y="627.4" width="46.0" height="72.6" fill="#facc15" opacity="0.9"/>
  <rect x="352.0" y="604.7" width="46.0" height="95.3" fill="#ef4444" opacity="0.9"/>
  <rect x="402.0" y="614.4" width="46.0" height="85.6" fill="#000000" opacity="0.9"/>
  <rect x="452.0" y="613.0" width="46.0" height="87.0" fill="#facc15" opacity="0.9"/>
  <rect x="502.0" y="608.9" width="46.0" height="91.1" fill="#facc15" opacity="0.9"/>
  <rect x="802.0" y="642.6" width="46.0" height="57.4" fill="#000000" opacity="0.9"/></g>

  <g transform="translate(100, 760)">
    <text font-family="'Orbitron', monospace" font-size="62" font-weight="900" fill="url(#text)" filter="url(#glow)">TRAP MONEY</text>
  </g>
  <g transform="translate(100, 830)">
    <text font-family="'Share Tech Mono', monospace" font-size="28" font-weight="600" fill="#facc15" letter-spacing="6">TRAP · 140 BPM</text>
  </g>
  <g transform="translate(100, 880)">
    <text font-family="'Share Tech Mono', monospace" font-size="20" font-weight="500" fill="#ef4444" letter-spacing="4" opacity="0.7">BEATFORGE</text>
  </g>
</svg>
